# Blender 4.0.2
# www.blender.org
mtllib boundary.mtl
o Cube
v 50.199959 -50.198277 0.000000
v 50.199959 -50.198277 2.000000
v -50.000038 -50.198277 0.000000
v -50.000038 -50.198277 2.000000
v 50.199959 50.101719 0.000000
v 50.199959 50.101719 2.000000
v -50.000038 50.101719 0.000000
v -50.000038 50.101719 2.000000
vn -0.0000 -1.0000 -0.0000
vn -1.0000 -0.0000 -0.0000
vn -0.0000 1.0000 -0.0000
vn 1.0000 -0.0000 -0.0000
vt 25.738346 0.027747
vt 25.738346 1.031037
vt -24.576519 1.031034
vt -24.576523 0.027747
s 0
g Cube_Material.006
usemtl Material.006
f 1/1/1 2/2/1 4/3/1 3/4/1
f 3/1/2 4/2/2 8/3/2 7/4/2
f 7/1/3 8/2/3 6/3/3 5/4/3
f 5/1/4 6/2/4 2/3/4 1/4/4
