# Blender 4.0.2
# www.blender.org
o Cube
v 0.305404 -0.305404 0.000000
v 0.305404 -0.305404 1.925222
v -0.305404 -0.305404 0.000000
v -0.305404 -0.305404 1.925222
v 0.305404 0.305404 0.000000
v 0.305404 0.305404 1.925222
v -0.305404 0.305404 0.000000
v -0.305404 0.305404 1.925222
vn -0.0000 -1.0000 -0.0000
vn -1.0000 -0.0000 -0.0000
vn -0.0000 1.0000 -0.0000
vn 1.0000 -0.0000 -0.0000
vn -0.0000 -0.0000 -1.0000
vn -0.0000 -0.0000 1.0000
vt 0.744080 0.254406
vt 0.744080 0.745593
vt 0.496836 0.745593
vt 0.496836 0.254406
vt 0.249592 0.745593
vt 0.249592 0.254406
vt 0.002348 0.745593
vt 0.002348 0.254406
vt 0.991324 0.254406
vt 0.991324 0.745593
vt 0.496836 0.005665
vt 0.744080 0.005665
vt 0.496836 0.994335
vt 0.744080 0.994335
s 0
f 1/1/1 2/2/1 4/3/1 3/4/1
f 3/4/2 4/3/2 8/5/2 7/6/2
f 7/6/3 8/5/3 6/7/3 5/8/3
f 5/9/4 6/10/4 2/2/4 1/1/4
f 3/4/5 7/11/5 5/12/5 1/1/5
f 8/13/6 4/3/6 2/2/6 6/14/6
